<?xml version="1.0" encoding="utf-8"?>
<svg version="1.1" id="Layer_1" xmlns="http://www.w3.org/2000/svg" xmlns:xlink="http://www.w3.org/1999/xlink" x="0px" y="0px" viewBox="0 0 328 34" style="enable-background:new 0 0 328 34;" xml:space="preserve" preserveAspectRatio="none">
	<path style="fill: #b7d7e9;" d="M314.403,16.238c-0.051,0-0.102,0-0.152-0.001c-3.849-0.056-5.726-0.771-7.382-1.402c-1.198-0.457-2.233-0.851-3.727-0.873c-1.789-0.028-3.194,0.117-5.526,0.355c-2.121,0.216-5.025,0.511-9.637,0.812c-5.28,0.345-8.441-0.031-11.498-0.395c-2.449-0.291-4.978-0.591-8.561-0.521c-4.274,0.086-6.231,0.526-7.957,0.914c-1.496,0.337-2.784,0.629-5.317,0.59c-2.068-0.03-3.152-0.578-4.524-1.271c-2.176-1.1-4.885-2.468-12.655-2.581c-7.72-0.112-11.118,1.612-13.85,2.997c-1.787,0.906-3.186,1.615-5.368,1.591c-2.887-0.042-4.062-0.733-5.198-1.401c-1.045-0.615-2.126-1.251-4.373-1.284c-1.532-0.021-2.464,0.25-3.544,0.566c-2.268,0.663-5.373,1.573-16.792,0.871c-4.798-0.294-8.227,0.399-11.253,1.012c-2.224,0.45-4.332,0.871-6.656,0.841c-2.468-0.036-3.478-0.485-4.646-1.005c-1.393-0.62-2.973-1.323-7.262-1.385c-4.098-0.06-6.997,0.829-9.806,1.689c-2.564,0.785-4.988,1.527-8.138,1.48c-3.933-0.057-5.385-1.076-6.551-1.895c-0.779-0.547-1.515-1.063-2.736-1.081c-1.409-0.022-2.345,0.685-3.335,1.433c-1.112,0.84-2.271,1.719-4.301,1.678c-1.283-0.018-2.523-0.528-4.24-1.233c-3.314-1.361-8.323-3.418-18.323-3.564c-4.187-0.058-9.186,0.693-13.202,1.298c-2.812,0.424-5.245,0.793-6.641,0.769c-1.439-0.021-1.98-0.699-2.665-1.558c-0.815-1.021-1.738-2.178-4.278-2.215c-2.5-0.05-4.476,1.678-6.206,3.19c-1.449,1.267-2.811,2.471-4.253,2.443c-0.892-0.013-1.658-0.271-2.469-0.544c-0.791-0.266-1.609-0.542-2.529-0.555c-0.832-0.015-1.487,0.195-2.176,0.414c-0.819,0.26-1.74,0.559-3.235,0.534c-0.912-0.013-1.815-0.449-2.959-1.001c-2.167-1.045-5.134-2.477-10.812-2.56c-5.507-0.076-8.632,1.129-10.909,2.012c-1.364,0.529-2.438,0.956-3.584,0.93c-1.331-0.019-1.763-0.597-2.311-1.327c-0.66-0.881-1.409-1.879-3.7-1.913c-1.94-0.03-3.883,0.308-5.944,0.665c-2.209,0.382-4.489,0.78-6.925,0.742c-2.63-0.038-4.519-0.569-5.641-1.008l-0.51-0.219c0.171,0.425,0.47,0.667,0.782,0.915c0.367,0.291,0.746,0.592,0.975,1.203c0.229,0.611,0.33,1.992,0.436,3.455c0.132,1.816,0.282,3.874,0.705,3.88c0.001,0,0.001,0,0.002,0c0.368,0,0.549-1.438,0.724-2.829c0.182-1.446,0.37-2.942,0.797-3.338c0.59-0.546,1.733-0.397,2.944-0.241c0.57,0.074,1.16,0.15,1.717,0.158c0.019,0,0.037,0,0.057,0c0.757,0,1.978-0.209,3.387-0.451c1.883-0.323,4.016-0.692,5.696-0.664c2.068,0.03,3.557,1.328,4.551,3.967c0.837,2.221,1.148,4.928,1.399,7.103c0.221,1.918,0.395,3.433,0.836,3.439c0.002,0,0.003,0,0.005,0c0.586,0,0.703-1.526,0.85-3.456c0.206-2.69,0.487-6.374,2.279-8.126l0.068-0.067l0.003,0.095c0.063,2.061,0.313,5.334,0.715,5.34c0.001,0,0.003,0,0.004,0c0.319,0,0.38-0.586,0.463-1.396c0.217-2.11,0.62-6.018,6.578-6.018c0.067,0,0.134,0,0.203,0.001c1.522,0.022,1.634,2.086,1.724,3.745c0.054,0.998,0.101,1.859,0.457,1.864c0.001,0,0.001,0,0.002,0c0.309,0,0.618-1.214,0.916-2.387c0.369-1.451,0.75-2.95,1.281-2.95c0.001,0,0.003,0,0.004,0c0.488,0.007,0.769,1.916,1.141,4.826c0.252,1.971,0.537,4.205,0.885,4.21c0,0,0.001,0,0.001,0c0.56,0,1.393-4.808,1.816-8.043l0.005-0.037l0.038,0.001c0.33,0.008,8.114,0.209,9.956,2.167c1.081,1.149,1.501,2.54,1.807,3.556c0.206,0.682,0.354,1.174,0.601,1.178c0.001,0,0.003,0,0.004,0c0.467,0,0.787-1.063,1.07-2c0.254-0.841,0.455-1.507,0.749-1.507c0.001,0,0.002,0,0.003,0c0.506,0.007,0.789,1.738,1.118,3.741c0.345,2.108,0.737,4.496,1.408,4.506c0.001,0,0.002,0,0.003,0c0.684,0,1.005-2.983,1.264-5.381c0.275-2.55,0.465-4.114,0.889-4.114c0.001,0,0.002,0,0.002,0c0.497,0.007,0.634,0.936,0.779,1.92c0.126,0.852,0.256,1.733,0.63,1.738c0.001,0,0.001,0,0.002,0c0.15,0,0.211-0.245,0.303-0.614c0.346-1.391,1.156-4.649,9.385-4.961c2.727-0.103,5.012-0.205,6.848-0.288c5.404-0.242,7.425-0.332,7.947,0.096c0.32,0.263,0.554,1.128,0.801,2.044c0.273,1.012,0.583,2.158,0.991,2.164c0.001,0,0.001,0,0.002,0c0.159,0,0.3-0.333,0.494-0.794c0.688-1.63,2.111-4.999,8.414-4.999c0.087,0,0.174,0.001,0.263,0.002l0.012,0.002c0.07,0.022,7.076,2.171,9.47,2.206l0.375,0.006c1.023,0.016,1.023,0.016,1.418-0.062c0.316-0.062,0.904-0.177,2.49-0.375c0.699-0.087,1.28,0.045,1.727,0.393c0.966,0.751,1.157,2.326,1.311,3.592c0.104,0.856,0.194,1.595,0.516,1.6c0.002,0,0.003,0,0.005,0c0.493,0,0.687-1.117,0.874-2.198c0.191-1.101,0.371-2.141,0.877-2.141c0.002,0,0.003,0,0.005,0c0.542,0.008,0.699,1.798,0.866,3.693c0.13,1.48,0.277,3.157,0.626,3.162c0.001,0,0.003,0,0.004,0c0.44,0,0.667-1.06,0.85-1.912c0.159-0.741,0.258-1.161,0.443-1.161c0.001,0,0.001,0,0.002,0c0.185,0.003,0.319,0.643,0.601,2.215c0.247,1.375,0.586,3.259,0.937,3.264c0,0,0.001,0,0.001,0c0.266,0,0.524-1.829,0.753-3.443c0.336-2.38,0.684-4.841,1.297-4.841c0.001,0,0.002,0,0.003,0c0.504,0.007,0.864,2.538,1.398,6.704c0.442,3.45,0.943,7.36,1.529,7.369c0.001,0,0.001,0,0.002,0c0.955,0,2.504-9.411,3.02-13.04l0.018-0.125l0.06,0.111c0.012,0.021,1.167,2.126,1.917,2.137c0.001,0,0.002,0,0.004,0c0.623,0,1.987-2.338,2.461-3.241l0.068-0.128l0.011,0.145c0.174,2.243,0.452,4.681,0.625,4.779c0.157-0.04,0.485-1.738,0.707-3.358l0.05-0.366l0.033,0.368c0.003,0.03,0.267,2.996,0.598,5.927c0.618,5.47,0.913,5.904,0.989,5.907c0,0,0,0,0.001,0c0.247,0,0.65-2.629,0.944-4.549c0.497-3.244,0.765-4.775,1.071-4.775c0,0,0.001,0,0.001,0c0.33,0.005,0.507,1.055,0.739,2.655c0.139,0.954,0.311,2.141,0.496,2.143c0.067-0.015,0.19-0.457,0.308-0.885c0.319-1.151,0.854-3.076,2.066-4.769c1.476-2.063,3.523-3.135,6.085-3.187c5.731-0.116,20.415,0.188,29.188,0.37c2.545,0.053,4.555,0.094,5.566,0.109c3.037,0.044,3.299,4.139,3.473,6.849c0.071,1.107,0.132,2.064,0.391,2.067c0,0,0.001,0,0.002,0c0.442,0,0.723-2.011,0.97-3.786c0.314-2.249,0.536-3.617,0.961-3.617c0.001,0,0.002,0,0.003,0c0.52,0.008,0.678,1.084,0.816,2.034c0.096,0.655,0.195,1.332,0.388,1.335c0,0,0.001,0,0.001,0c0.22,0,0.502-0.992,0.751-1.867c0.367-1.289,0.632-2.136,0.949-2.136c0.001,0,0.002,0,0.003,0c0.357,0.005,0.594,0.705,0.824,1.382c0.159,0.468,0.339,0.999,0.499,1.002c0.002,0,0.003,0,0.005,0c0.426,0,0.757-0.745,1.049-1.403c0.278-0.627,0.541-1.219,0.886-1.219c0.001,0,0.003,0,0.004,0c1.131,0.016,1.272,2.016,1.376,3.476c0.051,0.716,0.103,1.456,0.275,1.458c0.001,0,0.002,0,0.003,0c0.287,0,0.59-0.56,0.973-1.269c0.898-1.658,2.394-4.423,5.928-4.423c0.033,0,0.066,0,0.1,0.001c11.878,0.172,15.209-0.456,18.43-1.065c1.35-0.255,2.625-0.496,4.493-0.681c1.049-0.102,1.94,0.145,2.648,0.739c1.923,1.613,2.195,5.427,2.393,8.213c0.122,1.719,0.219,3.076,0.663,3.083c0.001,0,0.002,0,0.003,0c0.412,0,0.534-1.208,0.687-2.736c0.365-3.638,0.975-9.711,6.309-9.711c0.034,0,0.069,0,0.103,0.001c7.867,0.114,42.838-0.413,50.488-0.67c0.186-0.006,0.37-0.009,0.548-0.009c5.887,0,7.261,3.334,7.857,4.782c0.156,0.38,0.28,0.68,0.396,0.681c0,0,0.001,0,0.002,0c0.22,0,0.344-0.552,0.477-1.137c0.233-1.032,0.523-2.315,1.514-2.315c0.006,0,0.011,0,0.017,0c2.042,0.03,2.517,4.781,2.863,8.251c0.168,1.687,0.328,3.28,0.624,3.284c0.001,0,0.002,0,0.002,0c0.741,0,1.777-5.933,2.114-8.221l0.083,0.004c0.127,2.614,0.44,5.32,0.742,5.324c0,0,0,0,0.001,0c0.304,0,1.05-4.314,1.597-8.488l0.033-0.248l0.434,2.139c0.08-0.695,0.347-2.452,0.989-2.452c0.002,0,0.003,0,0.005,0c0.47,0.007,2.937,3.651,4.27,7.103c0.571,1.479,0.889,3.046,1.122,4.191c0.219,1.082,0.393,1.936,0.63,1.94c0.064,0,0.296-0.292,0.612-4.031c0.171-2.013,0.282-4.054,0.283-4.074l0.021-0.393l0.46,2.902c0.153-1.276,0.793-6.273,1.703-8.863c0.49-1.392,1.799-2.07,3.065-2.726c1.499-0.777,2.915-1.51,2.942-3.34c0.001-0.067,0.002-0.143,0-0.227l-0.187,0.11C324.764,13.259,319,16.238,314.403,16.238z"/>
	<path style="fill: #e3f0f9;" d="M324.782,8.213c-1.167,1.457-2.896,1.481-5.964,1.514c-0.332,0.004-0.677,0.007-1.037,0.013c-2.647,0.043-3.684,1.042-4.517,1.845c-0.654,0.631-1.127,1.103-2.233,1.071c-1.394-0.02-2.115-1.896-2.476-3.465l-0.013-0.057c-0.131,0.063-0.258,0.127-0.377,0.189c-1.936,1.012-2.747,2.054-2.755,2.064l-0.051,0.066l-0.023-0.08c-0.005-0.019-0.46-1.487-2.644-2.164c-0.334,0.399-0.795,0.827-1.392,1.278c-2.066,1.564-11.909,2.206-26.327,1.716c-5.142-0.174-8.76-0.883-11.23-1.642c-2.493-0.343-4.42-0.855-6.406-1.384c-2.464-0.656-5.011-1.335-8.838-1.716c-4.944-0.493-8.408-1.747-11.464-2.853c-1.618-0.586-3.104-1.12-4.606-1.465c-3.841,1.795-14.813,6.48-25.245,6.795c-5.565,0.168-8.82-0.462-12.945-1.259c-3.267-0.631-6.969-1.347-12.66-1.815c-2.18-0.179-4.159-0.359-5.987-0.526c-8.912-0.812-14.291-1.301-21.742,0.271c-2.43,0.513-4.351,1.241-6.209,1.945c-3.439,1.303-6.683,2.536-12.914,2.444c-0.617-0.009-0.74-0.242-0.781-0.319c-0.353-0.668,0.482-2.451,1.187-3.503l0.156-0.233l-0.158-0.231c-0.006-0.009-0.03-0.041-0.063-0.082c-0.169,0.206-0.242,0.331-0.245,0.336l-0.033,0.059l-0.038-0.056c-0.006-0.009-0.653-0.933-2.686-1.865c-1.412-0.648-3.73-1.399-7.302-1.768c-0.139,0.095-0.266,0.201-0.368,0.335c-0.611,0.8-0.428,2.067-0.251,3.291c0.129,0.889,0.262,1.809,0.027,2.285c-0.42,0.853-6.672,0.548-11.236,0.325c-4.361-0.213-8.871-0.433-12.346-0.176c-3.84,0.284-7.318,0.886-10.387,1.417c-3.457,0.598-6.443,1.116-8.699,0.937c-0.743-0.058-1.101-0.146-1.269-0.208c0.489-0.424,2.341-1.15,3.49-1.601c0.375-0.147,0.742-0.291,1.081-0.429c1.025-0.416,1.962-1.272,2.788-2.546l0.082-0.127c-3.884-0.492-5.991-1.932-8.033-3.336c-0.716-0.492-1.442-0.988-2.247-1.447l0.021,0.242c0.003,0.031,0.003,0.053,0.002,0.067c-0.173,0.083-0.831,0.099-1.526,0.116c-1.223,0.03-3.27,0.081-6.359,0.472c-3.566,0.452-4.455,0.996-4.694,1.675c-0.263,0.747,0.41,1.436,1.189,2.235c0.414,0.424,0.884,0.906,1.227,1.415c0.074,0.11,0.189,0.31,0.129,0.421C66.898,9.594,61.518,9.522,55.29,9.44c-1.687-0.022-3.516-0.047-5.466-0.058C43.34,9.346,35.571,9.663,29.326,9.92c-5.442,0.224-9.741,0.4-11.417,0.281C14.085,9.93,4.602,10.577,1.844,11.084c-0.656,0.121-1.241,0.351-1.754,0.671C0.034,11.961,0.003,12.166,0,12.365c-0.012,0.827,0.257,1.232,0.603,1.551c1.184,0.452,3.08,0.962,5.688,1c4.734,0.069,8.9-1.464,12.869-1.407c3.969,0.058,2.774,3.193,6.011,3.24c3.238,0.047,5.755-3.069,14.493-2.942c8.738,0.127,10.986,3.52,13.771,3.56c2.785,0.04,3.67-0.973,5.411-0.948c1.741,0.025,3.118,1.072,4.998,1.099c3.412,0.05,6.038-5.698,10.459-5.633c4.421,0.064,3.462,3.722,6.943,3.773c3.481,0.051,12.776-2.17,19.843-2.067c15.039,0.218,18.559,4.738,22.562,4.797c4.003,0.058,4.851-3.151,7.636-3.111c2.785,0.04,2.604,2.879,9.288,2.976c6.684,0.097,10.181-3.282,17.944-3.169s6.338,2.309,11.908,2.39c5.57,0.081,9.619-2.361,17.89-1.853c17.012,1.044,15.83-1.502,20.356-1.436c4.526,0.066,3.896,2.603,9.571,2.685c5.674,0.082,6.512-4.773,19.218-4.588s11.714,3.773,17.179,3.852c5.465,0.079,5.277-1.344,13.288-1.504c8.011-0.161,10.528,1.539,20.078,0.915c9.55-0.623,11.717-1.215,15.129-1.166c3.412,0.05,4.39,2.177,11.109,2.274c4.707,0.068,10.617-2.972,13.736-4.8c0.008-0.087,0.016-0.174,0.017-0.266C328.009,10.895,328.031,9.237,324.782,8.213z"/>
	<path style="fill: #ffffff;" d="M289.406,9.692c-5.45,0.575-11.628,1.227-18.112,1.286c-0.228,0.002-0.454,0.003-0.675,0.003c-4.007,0-6.794-0.333-9.158-0.806c2.385,1.018,6.589,2.208,13.498,2.443c12.494,0.424,24.129,0.065,26.594-1.8c0.761-0.576,1.248-1.062,1.563-1.461c-0.686-0.272-1.568-0.468-2.717-0.485C297.574,8.829,293.787,9.23,289.406,9.692z M317.9,7.359c-0.146-0.002-0.29-0.003-0.434-0.003c-4.563,0-7.568,1.061-9.302,1.967c-0.002,0.001-0.004,0.002-0.006,0.003c0.395,1.698,1.212,3.722,2.867,3.746c2.855,0.041,2.27-2.842,6.763-2.916c3.77-0.061,5.987,0.112,7.415-1.8C323.708,7.811,321.415,7.41,317.9,7.359z M223.087,3.698c-3.403,0.829-7.638,1.859-15.572,1.746c-5.998-0.087-13.36-0.919-21.154-1.801c-9.21-1.041-19.649-2.222-29.726-2.368c-0.402-0.006-0.797-0.009-1.184-0.009c-8.835,0-13.924,1.48-16.667,2.754c-3.1,1.439-3.949,2.929-3.957,2.944l-0.033,0.059l-0.029-0.043c-0.267,0.409-2.799,4.391-0.042,4.431c9.747,0.142,12.419-2.963,19.215-4.398c8.907-1.88,14.81-0.79,27.608,0.262c12.798,1.052,15.584,3.379,25.652,3.075c9.566-0.289,19.903-4.203,25.874-7.053c-1.216-0.322-2.43-0.533-3.72-0.552C227.124,2.711,225.254,3.17,223.087,3.698z M55.56,3.978c-0.381,0.212-0.774,0.431-1.183,0.656c-5.34,2.944-18.175,3.719-25.319,3.719c-0.178,0-0.352,0-0.523-0.001c-4.197-0.023-7.347-0.209-10.392-0.389c-2.554-0.151-5.195-0.307-8.47-0.37C9.516,7.591,9.361,7.589,9.208,7.589c-4.791,0-7.055,1.474-7.989,2.372c-0.745,0.717-1.183,1.569-1.214,2.348c0.469-0.356,1.088-0.664,1.915-0.816c2.793-0.514,12.273-1.138,15.96-0.877c3.687,0.261,19.93-0.888,31.942-0.818c12.012,0.071,19.385,0.625,17.784-1.753c-1.602-2.377-5.377-3.748,1.984-4.681c6.737-0.853,8.285-0.072,8.249-1.053c-2.02-1.225-4.499-2.246-8.755-2.308C62.869-0.086,60.115,1.443,55.56,3.978z M103.404,5.254c-4.442,0.939-8.633,1.826-13.149,1.76c-1.129-0.016-2.129-0.103-3.034-0.239c-0.642,0.981-1.493,1.914-2.57,2.351c-2.802,1.137-7.491,2.697-3.178,3.037c4.313,0.34,10.924-1.747,19.151-2.355c8.226-0.608,22.994,1.512,23.927-0.38c0.757-1.535-1.38-5.53,1.048-5.999c-1.381-0.175-2.967-0.293-4.784-0.319C114.008,3.012,108.619,4.152,103.404,5.254z"/>
</svg>